REM GENRE Psychedelic Rock
REM DATE 1987
REM COMMENT "DCue v1.5dev"
PERFORMER "Pink Floyd"
TITLE "Atom Heart Mother"
FILE "r374278.wav" WAVE
	TRACK 01 AUDIO
		TITLE "Atom Heart Mother"
		PERFORMER "Pink Floyd"
		INDEX 01 00:00:00
	TRACK 02 AUDIO
		TITLE "If"
		PERFORMER "Pink Floyd"
		INDEX 01 23:45:00
	TRACK 03 AUDIO
		TITLE "Summer '68"
		PERFORMER "Pink Floyd"
		INDEX 01 28:16:00
	TRACK 04 AUDIO
		TITLE "Fat Old Sun"
		PERFORMER "Pink Floyd"
		INDEX 01 33:44:00
	TRACK 05 AUDIO
		TITLE "Alan's Psychedelic Breakfast"
		PERFORMER "Pink Floyd"
		INDEX 01 39:07:00
